<svg width="120" height="120" fill="none" xmlns="http://www.w3.org/2000/svg"><mask id="a" fill="#fff"><path fill-rule="evenodd" clip-rule="evenodd" d="M45.75 35a2 2 0 00-2 2v4.3H30a2 2 0 00-2 2v40.1a2 2 0 002 2h59a2 2 0 002-2V43.3a2 2 0 00-2-2H75.25V37a2 2 0 00-2-2h-27.5z"/></mask><path d="M43.75 41.3v1h1v-1h-1zm31.5 0h-1v1h1v-1zM44.75 37a1 1 0 011-1v-2a3 3 0 00-3 3h2zm0 4.3V37h-2v4.3h2zM30 42.3h13.75v-2H30v2zm-1 1a1 1 0 011-1v-2a3 3 0 00-3 3h2zm0 40.1V43.3h-2v40.1h2zm1 1a1 1 0 01-1-1h-2a3 3 0 003 3v-2zm59 0H30v2h59v-2zm1-1a1 1 0 01-1 1v2a3 3 0 003-3h-2zm0-40.1v40.1h2V43.3h-2zm-1-1a1 1 0 011 1h2a3 3 0 00-3-3v2zm-13.75 0H89v-2H75.25v2zm-1-5.3v4.3h2V37h-2zm-1-1a1 1 0 011 1h2a3 3 0 00-3-3v2zm-27.5 0h27.5v-2h-27.5v2z" fill="#C4C4C4" mask="url(#a)"/><circle cx="59.5" cy="63.351" r="15.25" stroke="#C4C4C4"/><circle r="2.65" transform="matrix(-1 0 0 1 81.55 50.75)" stroke="#C4C4C4"/></svg>