<svg width="32" height="32" fill="none" xmlns="http://www.w3.org/2000/svg"><mask id="a" maskUnits="userSpaceOnUse" x="3.5" y="3.5" width="25" height="25" fill="#000"><path fill="#fff" d="M3.5 3.5h25v25h-25z"/><path fill-rule="evenodd" clip-rule="evenodd" d="M14.5 26a1.5 1.5 0 003 0v-8.5H26a1.5 1.5 0 000-3h-8.5V6a1.5 1.5 0 00-3 0v8.5H6a1.5 1.5 0 000 3h8.5V26z"/></mask><path fill-rule="evenodd" clip-rule="evenodd" d="M14.5 26a1.5 1.5 0 003 0v-8.5H26a1.5 1.5 0 000-3h-8.5V6a1.5 1.5 0 00-3 0v8.5H6a1.5 1.5 0 000 3h8.5V26z" fill="#fff"/><path d="M17.5 17.5v-1h-1v1h1zm8.5 0v-1 1zm0-3v-1 1zm-8.5 0h-1v1h1v-1zm-3 0v1h1v-1h-1zm-8.5 0v1-1zm0 3v1-1zm8.5 0h1v-1h-1v1zm1.5 9a.5.5 0 01-.5-.5h-2a2.5 2.5 0 002.5 2.5v-2zm.5-.5a.5.5 0 01-.5.5v2a2.5 2.5 0 002.5-2.5h-2zm0-8.5V26h2v-8.5h-2zm9.5-1h-8.5v2H26v-2zm.5-.5a.5.5 0 01-.5.5v2a2.5 2.5 0 002.5-2.5h-2zm-.5-.5a.5.5 0 01.5.5h2a2.5 2.5 0 00-2.5-2.5v2zm-8.5 0H26v-2h-8.5v2zm-1-9.5v8.5h2V6h-2zm-.5-.5a.5.5 0 01.5.5h2A2.5 2.5 0 0016 3.5v2zm-.5.5a.5.5 0 01.5-.5v-2A2.5 2.5 0 0013.5 6h2zm0 8.5V6h-2v8.5h2zm-9.5 1h8.5v-2H6v2zm-.5.5a.5.5 0 01.5-.5v-2A2.5 2.5 0 003.5 16h2zm.5.5a.5.5 0 01-.5-.5h-2A2.5 2.5 0 006 18.5v-2zm8.5 0H6v2h8.5v-2zm1 9.5v-8.5h-2V26h2z" fill="#192021" mask="url(#a)"/></svg>