<svg width="40" height="80" fill="none" xmlns="http://www.w3.org/2000/svg"><path d="M19.049 2.927c.3-.921 1.603-.921 1.902 0l3.315 10.202a1 1 0 00.95.69h10.727c.97 0 1.372 1.24.588 1.81l-8.678 6.305a1 1 0 00-.363 1.118l3.315 10.201c.299.922-.756 1.688-1.54 1.118l-8.677-6.305a1 1 0 00-1.176 0l-8.678 6.305c-.784.57-1.838-.196-1.539-1.118l3.315-10.201a1 1 0 00-.363-1.118l-8.678-6.305c-.784-.57-.381-1.81.588-1.81h10.726a1 1 0 00.951-.69L19.05 2.927z" fill="#78BBE1"/><path d="M19.049 42.927c.3-.921 1.603-.921 1.902 0l3.315 10.202a1 1 0 00.95.69h10.727c.97 0 1.372 1.24.588 1.81l-8.678 6.305a1 1 0 00-.363 1.118l3.315 10.201c.299.922-.756 1.688-1.54 1.118l-8.677-6.305a1 1 0 00-1.176 0l-8.678 6.305c-.784.57-1.838-.196-1.539-1.118l3.315-10.201a1 1 0 00-.363-1.118l-8.678-6.305c-.784-.57-.381-1.81.588-1.81h10.726a1 1 0 00.951-.69l3.315-10.202z" fill="#C4C4C4"/></svg>