<svg width="24" height="24" viewBox="0 0 24 24" fill="none" xmlns="http://www.w3.org/2000/svg">
	<path fill-rule="evenodd" clip-rule="evenodd" d="M14.146 22.7886C12.0122 23.2131 9.80047 22.9952 7.79048 22.1627C5.78049 21.3301 4.06253 19.9202 2.85383 18.1113C1.64514 16.3023 1 14.1756 1 12C1 11.2956 1.571 10.7246 2.27536 10.7246C2.97973 10.7246 3.55072 11.2956 3.55072 12C3.55072 13.6711 4.04626 15.3047 4.97468 16.6942C5.9031 18.0836 7.2227 19.1666 8.7666 19.8061C10.3105 20.4456 12.0094 20.6129 13.6484 20.2869C15.2874 19.9609 16.7929 19.1562 17.9745 17.9745C19.1562 16.7929 19.9609 15.2874 20.2869 13.6484C20.6129 12.0094 20.4456 10.3105 19.8061 8.7666C19.1666 7.2227 18.0836 5.9031 16.6942 4.97468C15.3047 4.04626 13.6711 3.55072 12 3.55072C11.2956 3.55072 10.7246 2.97973 10.7246 2.27536C10.7246 1.571 11.2956 1 12 1C14.1756 1 16.3023 1.64514 18.1113 2.85383C19.9202 4.06253 21.3301 5.78049 22.1627 7.79048C22.9952 9.80047 23.2131 12.0122 22.7886 14.146C22.3642 16.2798 21.3165 18.2398 19.7782 19.7782C18.2398 21.3165 16.2798 22.3642 14.146 22.7886Z" fill="#78BBE1"/>
			<animateTransform attributeName='transform'
				from='0 0 0'
				to='360 0 0'
				type='rotate'
				dur='1s'
				repeatCount="indefinite" />
</svg>
