<svg width="120" height="120" viewBox="0 0 120 120" fill="none" xmlns="http://www.w3.org/2000/svg">
<mask id="path-1-inside-1" fill="white">
<path fill-rule="evenodd" clip-rule="evenodd" d="M45.7503 35C44.6457 35 43.7503 35.8954 43.7503 37V41.2996H30C28.8955 41.2996 28 42.195 28 43.2996V83.4002C28 84.5048 28.8955 85.4002 30 85.4002H89.0009C90.1055 85.4002 91.0009 84.5048 91.0009 83.4002V43.2996C91.0009 42.195 90.1055 41.2996 89.0009 41.2996H75.2507V37C75.2507 35.8954 74.3553 35 73.2507 35H45.7503Z"/>
</mask>
<path d="M43.7503 41.2996V42.2996H44.7503V41.2996H43.7503ZM75.2507 41.2996H74.2507V42.2996H75.2507V41.2996ZM44.7503 37C44.7503 36.4477 45.198 36 45.7503 36V34C44.0934 34 42.7503 35.3432 42.7503 37H44.7503ZM44.7503 41.2996V37H42.7503V41.2996H44.7503ZM30 42.2996H43.7503V40.2996H30V42.2996ZM29 43.2996C29 42.7473 29.4478 42.2996 30 42.2996V40.2996C28.3432 40.2996 27 41.6427 27 43.2996H29ZM29 83.4002V43.2996H27V83.4002H29ZM30 84.4002C29.4478 84.4002 29 83.9525 29 83.4002H27C27 85.0571 28.3432 86.4002 30 86.4002V84.4002ZM89.0009 84.4002H30V86.4002H89.0009V84.4002ZM90.0009 83.4002C90.0009 83.9525 89.5532 84.4002 89.0009 84.4002V86.4002C90.6578 86.4002 92.0009 85.057 92.0009 83.4002H90.0009ZM90.0009 43.2996V83.4002H92.0009V43.2996H90.0009ZM89.0009 42.2996C89.5532 42.2996 90.0009 42.7473 90.0009 43.2996H92.0009C92.0009 41.6427 90.6578 40.2996 89.0009 40.2996V42.2996ZM75.2507 42.2996H89.0009V40.2996H75.2507V42.2996ZM74.2507 37V41.2996H76.2507V37H74.2507ZM73.2507 36C73.803 36 74.2507 36.4477 74.2507 37H76.2507C76.2507 35.3431 74.9076 34 73.2507 34V36ZM45.7503 36H73.2507V34H45.7503V36Z" fill="#C4C4C4" mask="url(#path-1-inside-1)"/>
<circle cx="59.5002" cy="63.3507" r="15.2502" stroke="#C4C4C4"/>
<circle r="2.65005" transform="matrix(-1 0 0 1 81.5502 50.7505)" stroke="#C4C4C4"/>
</svg>
