<svg width="32" height="32" viewBox="0 0 32 32" fill="none" xmlns="http://www.w3.org/2000/svg">
<mask id="path-1-outside-1" maskUnits="userSpaceOnUse" x="3.5" y="3.5" width="25" height="25" fill="black">
<rect fill="white" x="3.5" y="3.5" width="25" height="25"/>
<path fill-rule="evenodd" clip-rule="evenodd" d="M14.5 26C14.5 26.8284 15.1716 27.5 16 27.5C16.8284 27.5 17.5 26.8284 17.5 26V17.5L26 17.5C26.8284 17.5 27.5 16.8284 27.5 16C27.5 15.1716 26.8284 14.5 26 14.5L17.5 14.5V6C17.5 5.17157 16.8284 4.5 16 4.5C15.1716 4.5 14.5 5.17157 14.5 6V14.5L6 14.5C5.17157 14.5 4.5 15.1716 4.5 16C4.5 16.8284 5.17157 17.5 6 17.5L14.5 17.5V26Z"/>
</mask>
<path fill-rule="evenodd" clip-rule="evenodd" d="M14.5 26C14.5 26.8284 15.1716 27.5 16 27.5C16.8284 27.5 17.5 26.8284 17.5 26V17.5L26 17.5C26.8284 17.5 27.5 16.8284 27.5 16C27.5 15.1716 26.8284 14.5 26 14.5L17.5 14.5V6C17.5 5.17157 16.8284 4.5 16 4.5C15.1716 4.5 14.5 5.17157 14.5 6V14.5L6 14.5C5.17157 14.5 4.5 15.1716 4.5 16C4.5 16.8284 5.17157 17.5 6 17.5L14.5 17.5V26Z" fill="white"/>
<path d="M17.5 17.5V16.5H16.5V17.5H17.5ZM26 17.5V16.5V17.5ZM26 14.5V13.5V14.5ZM17.5 14.5H16.5V15.5H17.5V14.5ZM14.5 14.5V15.5H15.5V14.5H14.5ZM6 14.5V15.5H6L6 14.5ZM6 17.5V18.5H6L6 17.5ZM14.5 17.5H15.5V16.5H14.5V17.5ZM16 26.5C15.7239 26.5 15.5 26.2761 15.5 26H13.5C13.5 27.3807 14.6193 28.5 16 28.5V26.5ZM16.5 26C16.5 26.2761 16.2761 26.5 16 26.5V28.5C17.3807 28.5 18.5 27.3807 18.5 26H16.5ZM16.5 17.5V26H18.5V17.5H16.5ZM26 16.5L17.5 16.5V18.5L26 18.5V16.5ZM26.5 16C26.5 16.2761 26.2761 16.5 26 16.5V18.5C27.3807 18.5 28.5 17.3807 28.5 16H26.5ZM26 15.5C26.2761 15.5 26.5 15.7239 26.5 16H28.5C28.5 14.6193 27.3807 13.5 26 13.5V15.5ZM17.5 15.5L26 15.5V13.5L17.5 13.5V15.5ZM16.5 6V14.5H18.5V6H16.5ZM16 5.5C16.2761 5.5 16.5 5.72386 16.5 6H18.5C18.5 4.61929 17.3807 3.5 16 3.5V5.5ZM15.5 6C15.5 5.72386 15.7239 5.5 16 5.5V3.5C14.6193 3.5 13.5 4.61929 13.5 6H15.5ZM15.5 14.5V6H13.5V14.5H15.5ZM6 15.5L14.5 15.5V13.5L6 13.5L6 15.5ZM5.5 16C5.5 15.7239 5.72386 15.5 6 15.5V13.5C4.61929 13.5 3.5 14.6193 3.5 16H5.5ZM6 16.5C5.72386 16.5 5.5 16.2761 5.5 16H3.5C3.5 17.3807 4.61929 18.5 6 18.5V16.5ZM14.5 16.5L6 16.5L6 18.5L14.5 18.5V16.5ZM15.5 26V17.5H13.5V26H15.5Z" fill="#192021" mask="url(#path-1-outside-1)"/>
</svg>
