<svg width="40" height="80" viewBox="0 0 40 80" fill="none" xmlns="http://www.w3.org/2000/svg">
<path d="M19.0489 2.92705C19.3483 2.00574 20.6517 2.00574 20.9511 2.92705L24.2658 13.1287C24.3996 13.5407 24.7836 13.8197 25.2168 13.8197H35.9434C36.9122 13.8197 37.3149 15.0593 36.5312 15.6287L27.8532 21.9336C27.5027 22.1883 27.3561 22.6396 27.4899 23.0517L30.8046 33.2533C31.104 34.1746 30.0495 34.9407 29.2658 34.3713L20.5878 28.0664C20.2373 27.8117 19.7627 27.8117 19.4122 28.0664L10.7342 34.3713C9.95048 34.9407 8.896 34.1746 9.19535 33.2533L12.5101 23.0517C12.6439 22.6396 12.4973 22.1883 12.1468 21.9336L3.46877 15.6287C2.68505 15.0593 3.08783 13.8197 4.05655 13.8197H14.7832C15.2164 13.8197 15.6004 13.5407 15.7342 13.1287L19.0489 2.92705Z" fill="#78BBE1"/>
<path d="M19.0489 42.9271C19.3483 42.0057 20.6517 42.0057 20.9511 42.9271L24.2658 53.1287C24.3996 53.5407 24.7836 53.8197 25.2168 53.8197H35.9434C36.9122 53.8197 37.3149 55.0593 36.5312 55.6287L27.8532 61.9336C27.5027 62.1883 27.3561 62.6396 27.4899 63.0517L30.8046 73.2533C31.104 74.1746 30.0495 74.9407 29.2658 74.3713L20.5878 68.0664C20.2373 67.8117 19.7627 67.8117 19.4122 68.0664L10.7342 74.3713C9.95048 74.9407 8.896 74.1746 9.19535 73.2533L12.5101 63.0517C12.6439 62.6396 12.4973 62.1883 12.1468 61.9336L3.46877 55.6287C2.68505 55.0593 3.08783 53.8197 4.05655 53.8197H14.7832C15.2164 53.8197 15.6004 53.5407 15.7342 53.1287L19.0489 42.9271Z" fill="#C4C4C4"/>
</svg>
