<svg width="32" height="22" viewBox="0 0 32 22" fill="none" xmlns="http://www.w3.org/2000/svg">
<path fill-rule="evenodd" clip-rule="evenodd" d="M16 8C14.3431 8 13 9.34315 13 11C13 12.6569 14.3431 14 16 14C17.6569 14 19 12.6569 19 11C19 9.34315 17.6569 8 16 8ZM11 11C11 8.23858 13.2386 6 16 6C18.7614 6 21 8.23858 21 11C21 13.7614 18.7614 16 16 16C13.2386 16 11 13.7614 11 11Z" fill="#FFECB9"/>
<path fill-rule="evenodd" clip-rule="evenodd" d="M10.344 3.92973C10.7342 4.32059 10.7337 4.95375 10.3428 5.34394C9.59919 6.08627 9.00926 6.96795 8.60676 7.93851C8.20425 8.90907 7.99707 9.94948 7.99707 11.0002C7.99707 12.0509 8.20425 13.0913 8.60676 14.0619C9.00926 15.0324 9.59919 15.9141 10.3428 16.6564C10.7337 17.0466 10.7342 17.6798 10.344 18.0707C9.95381 18.4615 9.32065 18.4621 8.92979 18.0719C8.00011 17.1438 7.26255 16.0415 6.75932 14.828C6.2561 13.6146 5.99707 12.3138 5.99707 11.0002C5.99707 9.68654 6.2561 8.38579 6.75932 7.17235C7.26255 5.95892 8.00011 4.85661 8.92979 3.92852C9.32065 3.53833 9.95381 3.53887 10.344 3.92973Z" fill="#FFECB9"/>
<path fill-rule="evenodd" clip-rule="evenodd" d="M21.6565 3.92973C22.0467 3.53887 22.6799 3.53833 23.0708 3.92852C24.0004 4.85662 24.738 5.95892 25.2412 7.17235C25.7445 8.38579 26.0035 9.68654 26.0035 11.0002C26.0035 12.3138 25.7445 13.6146 25.2412 14.828C24.738 16.0415 24.0004 17.1438 23.0708 18.0719C22.6799 18.4621 22.0467 18.4615 21.6565 18.0707C21.2664 17.6798 21.2669 17.0466 21.6578 16.6564C22.4014 15.9141 22.9913 15.0324 23.3938 14.0619C23.7963 13.0913 24.0035 12.0509 24.0035 11.0002C24.0035 9.94948 23.7963 8.90907 23.3938 7.93851C22.9913 6.96795 22.4014 6.08627 21.6578 5.34394C21.2669 4.95375 21.2664 4.32059 21.6565 3.92973Z" fill="#FFECB9"/>
<path fill-rule="evenodd" clip-rule="evenodd" d="M6.80829 0.394083C7.19848 0.784941 7.19794 1.41811 6.80708 1.8083C5.59868 3.01464 4.64 4.44741 3.9859 6.02464C3.3318 7.60187 2.99512 9.2926 2.99512 11.0001C2.99512 12.7076 3.3318 14.3983 3.9859 15.9755C4.64 17.5527 5.59868 18.9855 6.80708 20.1919C7.19794 20.5821 7.19848 21.2152 6.80829 21.6061C6.4181 21.9969 5.78493 21.9975 5.39407 21.6073C3.99959 20.2152 2.89329 18.5618 2.13847 16.7417C1.38364 14.9216 0.995117 12.9705 0.995117 11.0001C0.995117 9.02967 1.38364 7.07859 2.13847 5.25849C2.89329 3.43838 3.99959 1.78498 5.39407 0.392875C5.78493 0.00268483 6.4181 0.00322568 6.80829 0.394083Z" fill="#FFECB9"/>
<path fill-rule="evenodd" clip-rule="evenodd" d="M25.1917 0.394083C25.5819 0.00322568 26.2151 0.00268483 26.6059 0.392875C28.0004 1.78498 29.1067 3.43838 29.8615 5.25849C30.6163 7.07859 31.0049 9.02967 31.0049 11.0001C31.0049 12.9705 30.6163 14.9216 29.8615 16.7417C29.1067 18.5618 28.0004 20.2152 26.6059 21.6073C26.2151 21.9975 25.5819 21.9969 25.1917 21.6061C24.8015 21.2152 24.8021 20.5821 25.1929 20.1919C26.4013 18.9855 27.36 17.5527 28.0141 15.9755C28.6682 14.3983 29.0049 12.7076 29.0049 11.0001C29.0049 9.2926 28.6682 7.60187 28.0141 6.02464C27.36 4.44741 26.4013 3.01464 25.1929 1.8083C24.8021 1.41811 24.8015 0.784941 25.1917 0.394083Z" fill="#FFECB9"/>
</svg>
