<svg width="26" height="22" viewBox="0 0 26 22" fill="none" xmlns="http://www.w3.org/2000/svg">
<path fill-rule="evenodd" clip-rule="evenodd" d="M19 1C19 0.447715 19.4477 0 20 0H25C25.5523 0 26 0.447715 26 1V6C26 6.55228 25.5523 7 25 7C24.4477 7 24 6.55228 24 6V2H20C19.4477 2 19 1.55228 19 1Z" fill="#FFECB9"/>
<path fill-rule="evenodd" clip-rule="evenodd" d="M1 15C1.55228 15 2 15.4477 2 16V20H6C6.55228 20 7 20.4477 7 21C7 21.5523 6.55228 22 6 22H1C0.447715 22 0 21.5523 0 21V16C0 15.4477 0.447715 15 1 15Z" fill="#FFECB9"/>
<path fill-rule="evenodd" clip-rule="evenodd" d="M25 15C25.5523 15 26 15.4477 26 16V21C26 21.5523 25.5523 22 25 22H20C19.4477 22 19 21.5523 19 21C19 20.4477 19.4477 20 20 20H24V16C24 15.4477 24.4477 15 25 15Z" fill="#FFECB9"/>
<path fill-rule="evenodd" clip-rule="evenodd" d="M0 1C0 0.447715 0.447715 0 1 0H6C6.55228 0 7 0.447715 7 1C7 1.55228 6.55228 2 6 2H2V6C2 6.55228 1.55228 7 1 7C0.447715 7 0 6.55228 0 6V1Z" fill="#FFECB9"/>
<path fill-rule="evenodd" clip-rule="evenodd" d="M7 5C7.55228 5 8 5.44772 8 6V16C8 16.5523 7.55228 17 7 17C6.44772 17 6 16.5523 6 16V6C6 5.44772 6.44772 5 7 5Z" fill="#FFECB9"/>
<path fill-rule="evenodd" clip-rule="evenodd" d="M19 5C19.5523 5 20 5.44772 20 6V16C20 16.5523 19.5523 17 19 17C18.4477 17 18 16.5523 18 16V6C18 5.44772 18.4477 5 19 5Z" fill="#FFECB9"/>
<path fill-rule="evenodd" clip-rule="evenodd" d="M15 5C15.5523 5 16 5.44772 16 6V16C16 16.5523 15.5523 17 15 17C14.4477 17 14 16.5523 14 16V6C14 5.44772 14.4477 5 15 5Z" fill="#FFECB9"/>
<path fill-rule="evenodd" clip-rule="evenodd" d="M11 5C11.5523 5 12 5.44772 12 6V16C12 16.5523 11.5523 17 11 17C10.4477 17 10 16.5523 10 16V6C10 5.44772 10.4477 5 11 5Z" fill="#FFECB9"/>
</svg>
