<svg width="24" height="24" viewBox="0 0 24 24" fill="none" xmlns="http://www.w3.org/2000/svg">
<path fill-rule="evenodd" clip-rule="evenodd" d="M11.9999 23.9998C18.6272 23.9998 23.9998 18.6272 23.9998 11.9999C23.9998 5.37253 18.6272 0 11.9999 0C5.37253 0 0 5.37253 0 11.9999C0 18.6272 5.37253 23.9998 11.9999 23.9998ZM16.0002 4.60817C15.4377 4.53606 14.646 4.5 13.6252 4.5C12.4238 4.5 11.462 4.80799 10.7398 5.42397C10.0176 6.03995 9.65647 6.90683 9.65647 8.02461V9.98973H7.00024V12.658H9.65647V19.4999H12.8439V12.658H15.4897L15.896 9.98973H12.8439V8.28602C12.8439 7.85333 12.9481 7.52882 13.1564 7.31247C13.3648 7.09613 13.7675 6.98796 14.3648 6.98796H16.0002V4.60817Z" fill="#AA9B71"/>
</svg>
