<svg width="30" height="9" viewBox="0 0 30 9" fill="none" xmlns="http://www.w3.org/2000/svg">
<path d="M2.04881 9H0V0H5.6292V1.56361H2.04881V3.8844H5.38065V5.44186H2.04881V9Z" fill="#FFECB9"/>
<path d="M9.63278 3.99521H10.3045C10.9628 3.99521 11.4487 3.89466 11.7622 3.69357C12.0757 3.49248 12.2324 3.17647 12.2324 2.74555C12.2324 2.31874 12.0712 2.01505 11.7488 1.83447C11.4308 1.6539 10.936 1.56361 10.2642 1.56361H9.63278V3.99521ZM9.63278 5.54651V9H7.55038V0H10.412C11.7465 0 12.734 0.223666 13.3744 0.670999C14.0148 1.11423 14.335 1.78933 14.335 2.69631C14.335 3.22572 14.176 3.69767 13.858 4.11217C13.5401 4.52257 13.09 4.84473 12.5078 5.07866C13.9857 7.10191 14.9485 8.40903 15.3963 9H13.0855L10.7412 5.54651H9.63278Z" fill="#FFECB9"/>
<path d="M22.2884 9H16.6323V0H22.2884V1.56361H18.7147V3.53967H22.0399V5.10328H18.7147V7.42408H22.2884V9Z" fill="#FFECB9"/>
<path d="M30 9H24.3439V0H30V1.56361H26.4263V3.53967H29.7515V5.10328H26.4263V7.42408H30V9Z" fill="#FFECB9"/>
</svg>
