<svg width="24" height="24" viewBox="0 0 24 24" fill="none" xmlns="http://www.w3.org/2000/svg">
<path fill-rule="evenodd" clip-rule="evenodd" d="M11.9999 23.9998C18.6272 23.9998 23.9998 18.6272 23.9998 11.9999C23.9998 5.37253 18.6272 0 11.9999 0C5.37253 0 0 5.37253 0 11.9999C0 18.6272 5.37253 23.9998 11.9999 23.9998ZM10 4.99976C7.23858 4.99976 5 7.23833 5 9.99975V13.9996C5 16.7611 7.23857 18.9996 10 18.9996H13.9999C16.7613 18.9996 18.9999 16.7611 18.9999 13.9996V9.99976C18.9999 7.23833 16.7613 4.99976 13.9999 4.99976H10ZM15.889 11.9994C15.889 14.1472 14.1479 15.8883 12.0002 15.8883C9.8524 15.8883 8.1113 14.1472 8.1113 11.9994C8.1113 9.85167 9.8524 8.11057 12.0002 8.11057C14.1479 8.11057 15.889 9.85167 15.889 11.9994ZM15.8891 8.88847C16.3186 8.88847 16.6668 8.54025 16.6668 8.1107C16.6668 7.68115 16.3186 7.33293 15.8891 7.33293C15.4595 7.33293 15.1113 7.68115 15.1113 8.1107C15.1113 8.54025 15.4595 8.88847 15.8891 8.88847Z" fill="#AA9B71"/>
</svg>
