<svg width="24" height="24" viewBox="0 0 24 24" fill="none" xmlns="http://www.w3.org/2000/svg">
<path fill-rule="evenodd" clip-rule="evenodd" d="M12 24C18.6274 24 24 18.6274 24 12C24 5.37258 18.6274 0 12 0C5.37258 0 0 5.37258 0 12C0 18.6274 5.37258 24 12 24ZM16.824 5.246C15.54 4.562 14.07 4.22 12.414 4.22C10.698 4.22 9.18 4.574 7.86 5.282C6.54 5.99 5.514 6.968 4.782 8.216C4.062 9.464 3.702 10.868 3.702 12.428C3.702 14 4.062 15.416 4.782 16.676C5.502 17.936 6.516 18.92 7.824 19.628C9.132 20.348 10.638 20.708 12.342 20.708C13.074 20.708 13.806 20.63 14.538 20.474C15.282 20.33 15.924 20.12 16.464 19.844L15.888 18.188C14.82 18.716 13.638 18.98 12.342 18.98C11.034 18.98 9.876 18.698 8.868 18.134C7.872 17.582 7.098 16.814 6.546 15.83C5.994 14.834 5.718 13.7 5.718 12.428C5.718 11.18 5.994 10.064 6.546 9.08C7.11 8.096 7.896 7.328 8.904 6.776C9.924 6.212 11.094 5.93 12.414 5.93C13.734 5.93 14.898 6.194 15.906 6.722C16.926 7.238 17.712 7.964 18.264 8.9C18.828 9.824 19.11 10.892 19.11 12.104C19.11 13.124 18.99 13.886 18.75 14.39C18.522 14.894 18.198 15.146 17.778 15.146C17.202 15.146 16.914 14.762 16.914 13.994V8.162H14.466V9.224C13.806 8.432 12.882 8.036 11.694 8.036C10.914 8.036 10.206 8.228 9.57 8.612C8.946 8.996 8.448 9.536 8.076 10.232C7.716 10.916 7.536 11.696 7.536 12.572C7.536 13.46 7.716 14.252 8.076 14.948C8.448 15.632 8.952 16.166 9.588 16.55C10.224 16.934 10.926 17.126 11.694 17.126C13.098 17.126 14.124 16.604 14.772 15.56C14.964 16.076 15.27 16.466 15.69 16.73C16.11 16.994 16.626 17.126 17.238 17.126C17.982 17.126 18.63 16.928 19.182 16.532C19.734 16.136 20.16 15.56 20.46 14.804C20.772 14.036 20.928 13.124 20.928 12.068C20.928 10.568 20.568 9.224 19.848 8.036C19.128 6.848 18.12 5.918 16.824 5.246ZM13.872 14.408C13.452 14.84 12.912 15.056 12.252 15.056C11.58 15.056 11.04 14.834 10.632 14.39C10.224 13.946 10.02 13.34 10.02 12.572C10.02 11.816 10.224 11.222 10.632 10.79C11.04 10.346 11.58 10.124 12.252 10.124C12.912 10.124 13.452 10.34 13.872 10.772C14.292 11.204 14.502 11.804 14.502 12.572C14.502 13.352 14.292 13.964 13.872 14.408Z" fill="#AA9B71"/>
</svg>
