<svg width="26" height="26" viewBox="0 0 26 26" fill="none" xmlns="http://www.w3.org/2000/svg">
<path fill-rule="evenodd" clip-rule="evenodd" d="M13 2C6.92487 2 2 6.92487 2 13C2 19.0751 6.92487 24 13 24C19.0751 24 24 19.0751 24 13C24 6.92487 19.0751 2 13 2ZM0 13C0 5.8203 5.8203 0 13 0C20.1797 0 26 5.8203 26 13C26 20.1797 20.1797 26 13 26C5.8203 26 0 20.1797 0 13Z" fill="#AA9B71"/>
<path fill-rule="evenodd" clip-rule="evenodd" d="M18.698 15.1337C19.1761 15.4101 19.3396 16.0218 19.0632 16.5C18.4482 17.5636 17.5642 18.4468 16.5 19.0608C15.4358 19.6748 14.2288 19.998 13.0002 19.998C11.7716 19.998 10.5646 19.6748 9.50035 19.0608C8.43613 18.4468 7.55216 17.5637 6.93719 16.5001C6.66075 16.0219 6.82424 15.4102 7.30236 15.1338C7.78048 14.8574 8.39217 15.0209 8.66861 15.499C9.10797 16.2589 9.7395 16.8898 10.4998 17.3285C11.2601 17.7671 12.1224 17.998 13.0002 17.998C13.8779 17.998 14.7403 17.7671 15.5006 17.3284C16.2608 16.8898 16.8924 16.2588 17.3317 15.4989C17.6081 15.0208 18.2198 14.8573 18.698 15.1337Z" fill="#AA9B71"/>
<path d="M8.5 12C9.32843 12 10 11.3284 10 10.5C10 9.67157 9.32843 9 8.5 9C7.67157 9 7 9.67157 7 10.5C7 11.3284 7.67157 12 8.5 12Z" fill="#AA9B71"/>
<path d="M17.5 12C18.3284 12 19 11.3284 19 10.5C19 9.67157 18.3284 9 17.5 9C16.6716 9 16 9.67157 16 10.5C16 11.3284 16.6716 12 17.5 12Z" fill="#AA9B71"/>
</svg>
