<svg width="24" height="24" viewBox="0 0 24 24" fill="none" xmlns="http://www.w3.org/2000/svg">
<path fill-rule="evenodd" clip-rule="evenodd" d="M24 12C24 18.6274 18.6274 24 12 24C5.37258 24 0 18.6274 0 12C0 5.37258 5.37258 0 12 0C18.6274 0 24 5.37258 24 12ZM14.7895 20.9997C14.7576 21.0209 10.9211 20.0786 7.42105 16.5787C4.02838 13.1861 3 9.57888 3 9.57888C3 9.57888 3.35386 8.85665 4.1053 8.10524C5.21057 7 5.70179 7 5.94741 7L8.15793 10.6841L7.05267 12.5262C7.05267 12.5262 8.15793 13.9998 9.2632 15.1051C10.5354 16.3772 11.4737 16.9471 11.4737 16.9471L13.3158 15.8419L17 18.0524C17 18.0524 16.667 18.9202 16.2632 19.526C15.8008 20.2196 15.1579 20.754 14.7895 20.9997ZM11 9.5C10.7239 9.5 10.5 9.72386 10.5 10C10.5 10.2761 10.7239 10.5 11 10.5C12.3807 10.5 13.5 11.6193 13.5 13C13.5 13.2761 13.7239 13.5 14 13.5C14.2761 13.5 14.5 13.2761 14.5 13C14.5 11.067 12.933 9.5 11 9.5ZM10.5 7C10.5 6.72386 10.7239 6.5 11 6.5C14.5899 6.5 17.5 9.41015 17.5 13C17.5 13.2761 17.2761 13.5 17 13.5C16.7239 13.5 16.5 13.2761 16.5 13C16.5 9.96243 14.0376 7.5 11 7.5C10.7239 7.5 10.5 7.27614 10.5 7ZM11 3.5C10.7239 3.5 10.5 3.72386 10.5 4C10.5 4.27614 10.7239 4.5 11 4.5C15.6944 4.5 19.5 8.30558 19.5 13C19.5 13.2761 19.7239 13.5 20 13.5C20.2761 13.5 20.5 13.2761 20.5 13C20.5 7.75329 16.2467 3.5 11 3.5Z" fill="#AA9B71"/>
</svg>
