<svg width="24" height="24" viewBox="0 0 24 24" fill="none" xmlns="http://www.w3.org/2000/svg">
<path fill-rule="evenodd" clip-rule="evenodd" d="M12 24C18.6274 24 24 18.6274 24 12C24 5.37258 18.6274 0 12 0C5.37258 0 0 5.37258 0 12C0 18.6274 5.37258 24 12 24ZM19.1904 7.7222L19.1423 7.63095C19.1103 7.57619 19.0275 7.52601 18.8941 7.48038C18.7606 7.43475 18.5897 7.42715 18.3814 7.45757L16.0747 7.47582C16.0373 7.46061 15.9839 7.46213 15.9145 7.48038L15.8104 7.50775L15.7703 7.53057L15.7383 7.55794C15.7116 7.57619 15.6822 7.60813 15.6502 7.65376C15.6182 7.69939 15.5915 7.75262 15.5701 7.81345C15.3191 8.54955 15.0335 9.23395 14.7131 9.86663C14.5155 10.2438 14.334 10.5708 14.1684 10.8476C14.0029 11.1244 13.8641 11.3282 13.7519 11.459C13.6398 11.5898 13.5383 11.6947 13.4476 11.7738C13.3568 11.8529 13.2874 11.8864 13.2393 11.8742C13.1913 11.862 13.1459 11.8499 13.1032 11.8377C13.0284 11.7829 12.9683 11.7084 12.9229 11.6141C12.8776 11.5198 12.8469 11.4012 12.8308 11.2582C12.8148 11.1153 12.8055 10.9921 12.8028 10.8887C12.8001 10.7852 12.8015 10.6392 12.8068 10.4506C12.8121 10.2621 12.8148 10.1343 12.8148 10.0674C12.8148 9.83621 12.8188 9.58527 12.8268 9.31455C12.8348 9.04384 12.8415 8.82939 12.8469 8.67122C12.8522 8.51305 12.8549 8.34576 12.8549 8.16934C12.8549 7.99291 12.8455 7.85451 12.8268 7.75414C12.8081 7.65376 12.7801 7.55642 12.7427 7.46213C12.7054 7.36783 12.6506 7.29483 12.5785 7.24312C12.5065 7.19141 12.417 7.15035 12.3102 7.11993C12.0272 7.04693 11.6668 7.00739 11.2289 7.0013C10.2357 6.98914 9.59766 7.06214 9.31465 7.22031C9.19718 7.28723 9.09573 7.37848 9.01029 7.49407C8.91418 7.6279 8.90083 7.70091 8.97024 7.71307C9.29062 7.76782 9.51756 7.89862 9.65105 8.10546L9.69911 8.21496C9.73649 8.29405 9.77387 8.43397 9.81124 8.63472C9.84862 8.83548 9.87265 9.05753 9.88333 9.30087C9.91003 9.74496 9.91003 10.1252 9.88333 10.4415C9.85663 10.7579 9.83127 11.0042 9.80724 11.1807C9.78321 11.3571 9.74717 11.5 9.69911 11.6096C9.65105 11.7191 9.61902 11.786 9.603 11.8103C9.58698 11.8346 9.57363 11.8499 9.56295 11.8559C9.49353 11.8864 9.42145 11.9016 9.34669 11.9016C9.27194 11.9016 9.18116 11.859 9.07437 11.7738C8.96757 11.6886 8.85678 11.5715 8.74197 11.4225C8.62717 11.2734 8.49768 11.0651 8.35351 10.7974C8.20934 10.5297 8.05983 10.2134 7.90498 9.84838L7.77682 9.58375C7.69673 9.41341 7.58726 9.16551 7.44843 8.84004C7.3096 8.51457 7.18679 8.19975 7.07999 7.89558C7.03728 7.76782 6.9732 7.67049 6.88777 7.60357L6.84772 7.57619C6.82102 7.55186 6.7783 7.52601 6.71957 7.49863C6.66083 7.47125 6.59942 7.45148 6.53535 7.43932L4.34073 7.45757C4.11647 7.45757 3.96429 7.51536 3.88419 7.63095L3.85215 7.6857C3.83613 7.71611 3.82812 7.76478 3.82812 7.8317C3.82812 7.89862 3.84414 7.98075 3.87618 8.07808C4.19656 8.93586 4.54498 9.76321 4.92143 10.5601C5.29787 11.3571 5.62493 11.9989 5.90259 12.4856C6.18026 12.9723 6.46326 13.4316 6.7516 13.8635C7.03995 14.2954 7.23084 14.5722 7.32429 14.6939C7.41773 14.8156 7.49115 14.9068 7.54455 14.9676L7.74479 15.1866C7.87294 15.3327 8.06116 15.5076 8.30946 15.7114C8.55775 15.9151 8.83275 16.1159 9.13444 16.3136C9.43613 16.5113 9.78722 16.6725 10.1877 16.7973C10.5882 16.922 10.978 16.9722 11.3571 16.9478H12.2782C12.4651 16.9296 12.6066 16.8627 12.7027 16.7471L12.7347 16.7014C12.7561 16.6649 12.7761 16.6087 12.7948 16.5326C12.8135 16.4566 12.8228 16.3729 12.8228 16.2817C12.8175 16.0201 12.8348 15.7844 12.8749 15.5745C12.9149 15.3646 12.9603 15.2064 13.0111 15.1C13.0618 14.9935 13.1192 14.9038 13.1833 14.8308C13.2473 14.7578 13.2927 14.7137 13.3194 14.6984C13.3461 14.6832 13.3675 14.6726 13.3835 14.6665C13.5116 14.6178 13.6625 14.665 13.836 14.808C14.0096 14.9509 14.1724 15.1273 14.3246 15.3372C14.4768 15.5471 14.6597 15.7828 14.8733 16.0444C15.0869 16.306 15.2737 16.5007 15.4339 16.6284L15.5941 16.7379C15.7009 16.8109 15.8398 16.8779 16.0106 16.9387C16.1815 16.9995 16.331 17.0147 16.4592 16.9843L18.5096 16.9478C18.7125 16.9478 18.87 16.9098 18.9822 16.8338C19.0943 16.7577 19.161 16.6741 19.1824 16.5828C19.2038 16.4916 19.2051 16.3881 19.1864 16.2726C19.1677 16.157 19.149 16.0764 19.1303 16.0307C19.1116 15.9851 19.0943 15.9471 19.0783 15.9167C18.8113 15.3692 18.3013 14.6969 17.5485 13.9C17.5431 13.8878 17.5298 13.8757 17.5084 13.8635C17.3269 13.6749 17.1747 13.5137 17.0519 13.3799C16.929 13.246 16.8423 13.1152 16.7915 12.9875C16.7408 12.8597 16.7061 12.7548 16.6874 12.6726C16.6687 12.5905 16.7008 12.4628 16.7835 12.2894C16.8663 12.116 16.9477 11.9654 17.0278 11.8377C17.1079 11.7099 17.2548 11.4909 17.4684 11.1807C17.6873 10.8582 17.8608 10.5997 17.989 10.405C18.9127 9.00582 19.3132 8.11154 19.1904 7.7222Z" fill="#AA9B71"/>
</svg>
