<svg width="32" height="22" fill="none" xmlns="http://www.w3.org/2000/svg"><path fill-rule="evenodd" clip-rule="evenodd" d="M16 8a3 3 0 100 6 3 3 0 000-6zm-5 3a5 5 0 1110 0 5 5 0 01-10 0zm-.656-7.07a1 1 0 01-.001 1.414 7.992 7.992 0 000 11.312 1 1 0 01-1.413 1.416 9.992 9.992 0 010-14.143 1 1 0 011.414 0zm11.313 0a1 1 0 011.414-.001 9.993 9.993 0 010 14.143 1 1 0 01-1.413-1.416 7.992 7.992 0 000-11.312 1 1 0 01-.002-1.414z" fill="#AA9B71"/><path fill-rule="evenodd" clip-rule="evenodd" d="M6.808.394a1 1 0 010 1.414 12.988 12.988 0 000 18.384 1 1 0 11-1.414 1.415 14.988 14.988 0 010-21.214 1 1 0 011.414.001zm18.384 0a1 1 0 011.414-.001 14.987 14.987 0 010 21.214 1 1 0 01-1.413-1.415 12.99 12.99 0 000-18.384 1 1 0 01-.001-1.414z" fill="#AA9B71"/></svg>