<svg width="26" height="22" fill="none" xmlns="http://www.w3.org/2000/svg"><path fill-rule="evenodd" clip-rule="evenodd" d="M19 1a1 1 0 011-1h5a1 1 0 011 1v5a1 1 0 11-2 0V2h-4a1 1 0 01-1-1zM1 15a1 1 0 011 1v4h4a1 1 0 110 2H1a1 1 0 01-1-1v-5a1 1 0 011-1zm24 0a1 1 0 011 1v5a1 1 0 01-1 1h-5a1 1 0 110-2h4v-4a1 1 0 011-1zM0 1a1 1 0 011-1h5a1 1 0 010 2H2v4a1 1 0 01-2 0V1zm7 4a1 1 0 011 1v10a1 1 0 11-2 0V6a1 1 0 011-1zm12 0a1 1 0 011 1v10a1 1 0 11-2 0V6a1 1 0 011-1zm-4 0a1 1 0 011 1v10a1 1 0 11-2 0V6a1 1 0 011-1zm-4 0a1 1 0 011 1v10a1 1 0 11-2 0V6a1 1 0 011-1z" fill="#FFECB9"/></svg>