<svg width="28" height="20" fill="none" xmlns="http://www.w3.org/2000/svg"><path fill-rule="evenodd" clip-rule="evenodd" d="M5.227 3.665C2.948 4.717 2 5.968 2 7s.948 2.283 3.227 3.335C7.42 11.347 10.52 12 14 12s6.58-.653 8.773-1.665C25.052 9.283 26 8.032 26 7s-.948-2.283-3.227-3.335C20.58 2.653 17.48 2 14 2s-6.58.653-8.773 1.665zM4.389 1.85C6.899.69 10.299 0 14 0c3.7 0 7.1.69 9.611 1.85C26.038 2.97 28 4.717 28 7c0 2.282-1.962 4.03-4.389 5.15C21.101 13.31 17.701 14 14 14c-3.7 0-7.1-.69-9.611-1.85C1.962 11.03 0 9.283 0 7c0-2.282 1.962-4.03 4.389-5.15z" fill="#FFECB9"/><path fill-rule="evenodd" clip-rule="evenodd" d="M14 12a1 1 0 011 1v6a1 1 0 11-2 0v-6a1 1 0 011-1z" fill="#FFECB9"/><path fill-rule="evenodd" clip-rule="evenodd" d="M1 6a1 1 0 011 1v6c0 .918.805 2.16 2.947 3.23C7.025 17.27 10.113 18 14 18c3.887 0 6.975-.73 9.053-1.77C25.195 15.16 26 13.919 26 13V7a1 1 0 112 0v6c0 2.082-1.695 3.84-4.053 5.02C21.525 19.23 18.113 20 14 20c-4.113 0-7.525-.77-9.947-1.98C1.695 16.84 0 15.081 0 13V7a1 1 0 011-1z" fill="#FFECB9"/><path fill-rule="evenodd" clip-rule="evenodd" d="M22 10.763a1 1 0 011 1v6a1 1 0 11-2 0v-6a1 1 0 011-1zm-16 0a1 1 0 011 1v6a1 1 0 11-2 0v-6a1 1 0 011-1z" fill="#FFECB9"/></svg>