<svg width="30" height="9" fill="none" xmlns="http://www.w3.org/2000/svg"><path d="M2.049 9H0V0h5.63v1.564H2.048v2.32H5.38v1.558H2.049V9zm7.584-5.005h.672c.658 0 1.144-.1 1.457-.301.314-.202.47-.518.47-.948 0-.427-.16-.731-.483-.912-.318-.18-.813-.27-1.485-.27h-.631v2.431zm0 1.552V9H7.55V0h2.862c1.334 0 2.322.224 2.962.671.64.443.961 1.118.961 2.025 0 .53-.159 1.002-.477 1.416-.318.41-.768.733-1.35.967A367.63 367.63 0 0015.396 9h-2.31L10.74 5.547H9.633zM22.288 9h-5.656V0h5.656v1.564h-3.573V3.54h3.325v1.563h-3.325v2.321h3.573V9zM30 9h-5.656V0H30v1.564h-3.574V3.54h3.326v1.563h-3.326v2.321H30V9z" fill="#AA9B71"/></svg>