<svg width="26" height="29" fill="none" xmlns="http://www.w3.org/2000/svg"><path fill-rule="evenodd" clip-rule="evenodd" d="M11.303 2.976a1.5 1.5 0 00-1.688 2.198l3.25 5.628a1 1 0 01-1.732 1l-3.25-5.629a3.502 3.502 0 011.282-4.779 3.5 3.5 0 014.78 1.279l5 8.66a1 1 0 11-1.732 1l-5-8.659a1.501 1.501 0 00-.91-.698z" fill="#FFECB9"/><path fill-rule="evenodd" clip-rule="evenodd" d="M5.972 3.74a1.5 1.5 0 00-1.687 2.2l4.75 8.229a1 1 0 11-1.732 1l-4.75-8.227a3.502 3.502 0 012.574-5.223 3.5 3.5 0 013.488 1.722l4.25 7.362a1 1 0 11-1.732 1L6.883 4.44a1.504 1.504 0 00-.911-.7z" fill="#FFECB9"/><path fill-rule="evenodd" clip-rule="evenodd" d="M19.382 6.968a1.5 1.5 0 00-1.687 2.2l1.25 2.165a1 1 0 01-.366 1.366 4 4 0 00-1.464 5.464 1 1 0 01-1.732 1 6 6 0 011.372-7.623l-.791-1.371a3.499 3.499 0 116.061-3.5l2.5 4.33a11.001 11.001 0 11-19.052 11L.723 13.77a3.502 3.502 0 011.282-4.78 3.5 3.5 0 014.78 1.28l2.25 3.897a1 1 0 11-1.732 1l-2.25-3.896a1.5 1.5 0 00-2.598 1.5l4.75 8.226a9 9 0 1015.588-9l-2.5-4.33a1.505 1.505 0 00-.911-.7zM2.5 22.632A1 1 0 013.867 23a12.944 12.944 0 003.84 4.179 1 1 0 11-1.14 1.643 14.944 14.944 0 01-4.433-4.824 1 1 0 01.368-1.366zm19.25-19.02A5.496 5.496 0 0019 2.875a1 1 0 110-2 7.496 7.496 0 016.494 3.75 1 1 0 01-1.732 1 5.497 5.497 0 00-2.012-2.013z" fill="#FFECB9"/></svg>