<svg width="1407" height="268" fill="none" xmlns="http://www.w3.org/2000/svg"><path fill-rule="evenodd" clip-rule="evenodd" d="M309.177.42c8.258 0 14.952 6.694 14.952 14.953v222.236h122.368c8.258 0 14.953 6.694 14.953 14.953 0 8.258-6.695 14.953-14.953 14.953h-137.32c-8.259 0-14.953-6.695-14.953-14.953V15.372c0-8.258 6.694-14.952 14.953-14.952zm856.103 144.437c5.7 5.358 14.56 5.424 20.33.151l129.87-118.594c6.1-5.57 6.53-15.027.96-21.125-5.57-6.098-15.03-6.527-21.13-.959l-119.63 109.248L1059.73 4.482c-6.02-5.66-15.48-5.371-21.14.644-5.66 6.014-5.37 15.477.64 21.136l126.05 118.595zm86.38-15.81a14.949 14.949 0 0119.73-.146l129.87 112.353c6.25 5.403 6.93 14.846 1.53 21.091-5.41 6.246-14.85 6.928-21.1 1.525l-119.93-103.761-116.25 103.615c-6.16 5.495-15.61 4.952-21.11-1.212-5.49-6.165-4.95-15.617 1.21-21.112l126.05-112.353zM525.169 15.373c0-8.259 6.695-14.953 14.953-14.953h168.529c8.258 0 14.953 6.694 14.953 14.953 0 8.258-6.695 14.953-14.953 14.953H540.122c-8.258 0-14.953-6.695-14.953-14.953zm0 237.189c0-8.259 6.695-14.953 14.953-14.953h168.529c8.258 0 14.953 6.694 14.953 14.953 0 8.258-6.695 14.953-14.953 14.953H540.122c-8.258 0-14.953-6.695-14.953-14.953zm0-118.595c0-8.259 6.695-14.953 14.953-14.953h168.529c8.258 0 14.953 6.694 14.953 14.953 0 8.258-6.695 14.953-14.953 14.953H540.122c-8.258 0-14.953-6.695-14.953-14.953zM787.327 15.373c0-8.259 6.695-14.953 14.953-14.953h168.529c8.259 0 14.953 6.694 14.953 14.953 0 8.258-6.694 14.953-14.953 14.953H802.28c-8.258 0-14.953-6.695-14.953-14.953zm0 237.189c0-8.259 6.695-14.953 14.953-14.953h168.529c8.259 0 14.953 6.694 14.953 14.953 0 8.258-6.694 14.953-14.953 14.953H802.28c-8.258 0-14.953-6.695-14.953-14.953zm0-118.595c0-8.259 6.695-14.953 14.953-14.953h168.529c8.259 0 14.953 6.694 14.953 14.953 0 8.258-6.694 14.953-14.953 14.953H802.28c-8.258 0-14.953-6.695-14.953-14.953zm-638.982-102.7a103.64 103.64 0 1048.244 185.613c6.607-4.955 15.979-3.616 20.934 2.99 4.955 6.607 3.616 15.98-2.991 20.935a133.552 133.552 0 01-141.383 11.832A133.543 133.543 0 01.901 130.533a133.549 133.549 0 0122.215-70.39l12.46 8.265-12.46-8.266a133.548 133.548 0 01196.802-28.754c6.343 5.288 7.198 14.717 1.91 21.06-5.288 6.343-14.717 7.199-21.06 1.91a103.64 103.64 0 00-52.423-23.091z" fill="#192021"/></svg>