<svg width="24" height="24" fill="none" xmlns="http://www.w3.org/2000/svg"><path fill-rule="evenodd" clip-rule="evenodd" d="M12 24c6.627 0 12-5.373 12-12S18.627 0 12 0 0 5.373 0 12s5.373 12 12 12zm4.824-18.754c-1.284-.684-2.754-1.026-4.41-1.026-1.716 0-3.234.354-4.554 1.062-1.32.708-2.346 1.686-3.078 2.934-.72 1.248-1.08 2.652-1.08 4.212 0 1.572.36 2.988 1.08 4.248.72 1.26 1.734 2.244 3.042 2.952 1.308.72 2.814 1.08 4.518 1.08.732 0 1.464-.078 2.196-.234.744-.144 1.386-.354 1.926-.63l-.576-1.656c-1.068.528-2.25.792-3.546.792-1.308 0-2.466-.282-3.474-.846a5.875 5.875 0 01-2.322-2.304c-.552-.996-.828-2.13-.828-3.402 0-1.248.276-2.364.828-3.348a5.966 5.966 0 012.358-2.304c1.02-.564 2.19-.846 3.51-.846 1.32 0 2.484.264 3.492.792 1.02.516 1.806 1.242 2.358 2.178.564.924.846 1.992.846 3.204 0 1.02-.12 1.782-.36 2.286-.228.504-.552.756-.972.756-.576 0-.864-.384-.864-1.152V8.162h-2.448v1.062c-.66-.792-1.584-1.188-2.772-1.188a4.03 4.03 0 00-2.124.576c-.624.384-1.122.924-1.494 1.62-.36.684-.54 1.464-.54 2.34 0 .888.18 1.68.54 2.376a4.14 4.14 0 001.512 1.602 3.997 3.997 0 002.106.576c1.404 0 2.43-.522 3.078-1.566.192.516.498.906.918 1.17.42.264.936.396 1.548.396.744 0 1.392-.198 1.944-.594.552-.396.978-.972 1.278-1.728.312-.768.468-1.68.468-2.736 0-1.5-.36-2.844-1.08-4.032-.72-1.188-1.728-2.118-3.024-2.79zm-2.952 9.162c-.42.432-.96.648-1.62.648-.672 0-1.212-.222-1.62-.666-.408-.444-.612-1.05-.612-1.818 0-.756.204-1.35.612-1.782.408-.444.948-.666 1.62-.666.66 0 1.2.216 1.62.648.42.432.63 1.032.63 1.8 0 .78-.21 1.392-.63 1.836z" fill="#AA9B71"/></svg>