<svg width="28" height="26" fill="none" xmlns="http://www.w3.org/2000/svg"><path d="M2 5.42l-.449-.22-.084.173.052.185L2 5.421zm0 0l-.48.138h0v.002l.001.005.005.016a5.714 5.714 0 00.086.274c.062.187.156.459.287.801.262.686.672 1.658 1.265 2.812a33.419 33.419 0 006.061 8.306 31.737 31.737 0 008.683 6.15c1.22.585 2.255.978 2.991 1.224.368.123.663.21.87.265a5.492 5.492 0 00.342.08.718.718 0 00.13.006.496.496 0 00.247-.084c.67-.447 1.826-1.407 2.665-2.665.368-.552.697-1.211.93-1.722a19.173 19.173 0 00.356-.83l.02-.052.006-.014.001-.004v-.001h0l-.466-.18.467.179.15-.392-.36-.216-6.316-3.79-.257-.154-.257.155-2.89 1.733-.015-.01c-.177-.12-.439-.305-.768-.558a27.195 27.195 0 01-2.663-2.353c-.931-.93-1.866-2.021-2.572-2.884a56.043 56.043 0 01-.968-1.217l1.72-2.867.154-.257-.154-.258L7.48.743 7.336.5h-.283c-.25 0-.648.004-1.24.285-.571.27-1.302.786-2.272 1.756a11.978 11.978 0 00-1.493 1.823 9.825 9.825 0 00-.487.817l-.007.013-.002.005V5.2h0L2 5.42z" fill="#F5F2ED" stroke="#fff"/></svg>