<svg xmlns="http://www.w3.org/2000/svg" width="300" height="300"><path fill="#1E4BC6" d="M297.169 105.353c-3.685-27.818-13.532-53.029-30.9-71.494h-.007c-18.465-17.363-43.676-27.21-71.497-30.894C168.188-.559 150.1.312 150.1.312s-18.098-.871-44.673 2.652C77.604 6.648 52.394 16.496 33.925 33.858 16.561 52.323 6.709 77.534 3.024 105.353-.499 131.921.375 150.016.375 150.016s-.874 18.088 2.649 44.664c3.685 27.819 13.537 53.023 30.901 71.486v.007c18.469 17.361 43.679 27.207 71.501 30.896 26.575 3.522 44.673 2.648 44.673 2.648s18.088.874 44.665-2.648c27.821-3.688 53.032-13.534 71.497-30.896l.007-.007c17.368-18.463 27.216-43.667 30.9-71.486 3.521-26.576 2.649-44.664 2.649-44.664s.872-18.096-2.648-44.663"/><path fill="#FFF" d="M55.45 106.125h26.901c4.092 0 7.857.736 11.301 2.205 3.446 1.469 6.419 3.459 8.936 5.973 2.508 2.512 4.481 5.47 5.915 8.878 1.435 3.406 2.154 7.046 2.154 10.917 0 3.875-.719 7.533-2.154 10.979-1.433 3.441-3.407 6.418-5.915 8.927-2.517 2.513-5.511 4.509-8.99 5.975-3.477 1.473-7.263 2.207-11.353 2.207h-12.16v22.487H55.45v-78.548zm14.635 13.557v28.946h11.19c2.154 0 4.127-.377 5.917-1.13 1.792-.753 3.336-1.795 4.63-3.123a14.203 14.203 0 003.012-4.626c.72-1.758 1.08-3.639 1.08-5.651 0-2.004-.36-3.89-1.08-5.648a13.662 13.662 0 00-3.012-4.572c-1.294-1.291-2.837-2.314-4.63-3.066-1.79-.753-3.763-1.13-5.917-1.13h-11.19zm74.364 65.095c-3.803 0-7.552-.702-11.244-2.12a30.998 30.998 0 01-9.958-6.173c-2.942-2.696-5.31-5.999-7.104-9.907-1.793-3.902-2.688-8.348-2.688-13.325 0-5.049.878-9.522 2.635-13.431 1.758-3.906 4.088-7.211 6.998-9.907 2.903-2.694 6.241-4.752 10.004-6.169 3.769-1.416 7.625-2.128 11.571-2.128 4.157 0 7.997.755 11.514 2.259 3.513 1.505 6.422 3.554 8.72 6.155v-8.303h14.527v62.945h-14.527v-8.944c-2.298 2.814-5.237 5.023-8.83 6.633-3.585 1.617-7.458 2.415-11.618 2.415m2.367-13.336c2.724 0 5.235-.475 7.535-1.417 2.294-.943 4.266-2.258 5.914-3.942a19.38 19.38 0 003.929-5.864c.972-2.215 1.457-4.609 1.457-7.176 0-2.49-.485-4.85-1.457-7.073-.97-2.219-2.277-4.158-3.929-5.809-1.648-1.653-3.62-2.948-5.914-3.889-2.3-.944-4.812-1.416-7.535-1.416-2.656 0-5.147.472-7.481 1.416-2.333.941-4.357 2.219-6.079 3.835a17.345 17.345 0 00-4.037 5.765c-.969 2.223-1.451 4.615-1.451 7.17 0 2.566.482 4.975 1.451 7.231a17.71 17.71 0 004.037 5.856c1.721 1.658 3.746 2.951 6.079 3.895 2.334.944 4.825 1.418 7.481 1.418m63.17 10.508l-25.827-60.223h15.496l17.538 43.069 16.578-43.069h15.281l-37.563 91.889h-14.735z"/></svg>