<svg width="26" height="26" fill="none" xmlns="http://www.w3.org/2000/svg"><path fill-rule="evenodd" clip-rule="evenodd" d="M13 2C6.925 2 2 6.925 2 13s4.925 11 11 11 11-4.925 11-11S19.075 2 13 2zM0 13C0 5.82 5.82 0 13 0s13 5.82 13 13-5.82 13-13 13S0 20.18 0 13z" fill="#FFECB9"/><path fill-rule="evenodd" clip-rule="evenodd" d="M18.698 15.134a1 1 0 01.365 1.366 7.004 7.004 0 01-12.126 0 1 1 0 111.733-1 5.004 5.004 0 008.663 0 1 1 0 011.366-.365z" fill="#FFECB9"/><path d="M8.5 12a1.5 1.5 0 100-3 1.5 1.5 0 000 3zm9 0a1.5 1.5 0 100-3 1.5 1.5 0 000 3z" fill="#FFECB9"/></svg>