<svg width="24" height="24" fill="none" xmlns="http://www.w3.org/2000/svg"><path fill-rule="evenodd" clip-rule="evenodd" d="M24 12c0 6.627-5.373 12-12 12S0 18.627 0 12 5.373 0 12 0s12 5.373 12 12zm-9.21 9c-.032.02-3.869-.921-7.369-4.421-3.393-3.393-4.421-7-4.421-7s.354-.722 1.105-1.474C5.211 7 5.702 7 5.947 7l2.21 3.684-1.104 1.842s1.105 1.474 2.21 2.58c1.272 1.271 2.21 1.841 2.21 1.841l1.843-1.105L17 18.052s-.333.868-.737 1.474A5.724 5.724 0 0114.79 21zM11 9.5a.5.5 0 000 1 2.5 2.5 0 012.5 2.5.5.5 0 001 0A3.5 3.5 0 0011 9.5zM10.5 7a.5.5 0 01.5-.5 6.5 6.5 0 016.5 6.5.5.5 0 01-1 0A5.5 5.5 0 0011 7.5a.5.5 0 01-.5-.5zm.5-3.5a.5.5 0 000 1 8.5 8.5 0 018.5 8.5.5.5 0 001 0A9.5 9.5 0 0011 3.5z" fill="#AA9B71"/></svg>