<svg width="24" height="24" fill="none" xmlns="http://www.w3.org/2000/svg"><path fill-rule="evenodd" clip-rule="evenodd" d="M12 24c6.627 0 12-5.373 12-12S18.627 0 12 0 0 5.373 0 12s5.373 12 12 12zm7.19-16.278l-.048-.091c-.032-.055-.114-.105-.248-.15a1.11 1.11 0 00-.513-.023l-2.306.018c-.038-.015-.091-.014-.16.004l-.105.028-.04.023-.032.027a.382.382 0 00-.088.096.655.655 0 00-.08.16c-.25.736-.537 1.42-.857 2.053-.197.377-.379.704-.545.98a4.67 4.67 0 01-.416.612 3.09 3.09 0 01-.304.315c-.091.079-.16.112-.209.1a4.818 4.818 0 01-.136-.036.585.585 0 01-.18-.224 1.113 1.113 0 01-.092-.356 4.426 4.426 0 01-.028-.37 8.672 8.672 0 01.004-.437c.005-.189.008-.317.008-.384 0-.23.004-.482.012-.752.008-.271.014-.486.02-.644.005-.158.008-.325.008-.502 0-.176-.01-.314-.028-.415a1.57 1.57 0 00-.084-.292.477.477 0 00-.165-.219.861.861 0 00-.268-.123A4.697 4.697 0 0011.23 7c-.993-.012-1.631.061-1.914.22a.98.98 0 00-.305.273c-.096.134-.11.207-.04.22.32.054.548.185.681.391l.048.11c.037.08.075.219.112.42.038.2.062.423.072.666.027.444.027.824 0 1.14-.026.317-.052.563-.076.74a1.637 1.637 0 01-.204.63.147.147 0 01-.04.045.532.532 0 01-.216.046c-.075 0-.166-.043-.273-.128a2.044 2.044 0 01-.332-.351 4.735 4.735 0 01-.388-.626 11.458 11.458 0 01-.449-.949l-.128-.264c-.08-.17-.19-.418-.329-.744-.138-.325-.261-.64-.368-.944a.6.6 0 00-.192-.292l-.04-.028a.777.777 0 00-.312-.137l-2.195.019c-.225 0-.377.057-.457.173l-.032.055a.33.33 0 00-.024.146c0 .067.016.149.048.246.32.858.669 1.685 1.045 2.482.377.797.704 1.439.982 1.926.277.486.56.946.849 1.377.288.432.479.71.572.83.094.123.167.214.22.275l.2.219c.129.146.317.32.565.524.249.204.524.405.825.603a4.18 4.18 0 001.054.483c.4.125.79.175 1.17.15h.92c.187-.017.329-.084.425-.2l.032-.046a.664.664 0 00.06-.168 1.05 1.05 0 00.028-.251 3.416 3.416 0 01.052-.707c.04-.21.085-.369.136-.475a1.163 1.163 0 01.308-.402.496.496 0 01.064-.032c.129-.048.28-.001.453.142.174.143.336.32.489.53.152.21.335.445.548.706.214.262.4.457.56.584l.161.11c.107.073.246.14.417.2.17.062.32.077.448.046l2.05-.036c.203 0 .361-.038.473-.114.112-.076.179-.16.2-.251a.799.799 0 00.004-.31 1.25 1.25 0 00-.056-.242 1.349 1.349 0 00-.052-.114c-.267-.548-.777-1.22-1.53-2.017-.005-.012-.018-.024-.04-.037-.181-.188-.333-.35-.456-.483a1.31 1.31 0 01-.26-.393 2.252 2.252 0 01-.105-.314c-.018-.082.014-.21.096-.384.083-.173.165-.324.245-.451.08-.128.227-.347.44-.657.22-.323.393-.581.521-.776.924-1.4 1.324-2.293 1.201-2.683z" fill="#FFECB9"/></svg>